<svg version="1.1" xmlns="http://www.w3.org/2000/svg" viewBox="0 0 1064.1936704663563 693.8149353003503" width="1064.1936704663563" height="693.8149353003503">
  <!-- svg-source:excalidraw -->
  
  <defs>
    <style>
      @font-face {
        font-family: "Virgil";
        src: url("https://excalidraw.com/Virgil.woff2");
      }
      @font-face {
        font-family: "Cascadia";
        src: url("https://excalidraw.com/Cascadia.woff2");
      }
    </style>
  </defs>
  <rect x="0" y="0" width="1064.1936704663563" height="693.8149353003503" fill="#ffffff"></rect><g stroke-linecap="round"><g transform="translate(58.97828984558589 12.539942201077906) rotate(0 1.0058064043375623 329.4738566779438)"><path d="M-0.29 0.76 C-0.49 110.64, -0.27 549.02, -0.02 658.83 M1.76 0.12 C1.85 109.65, 2.52 547.25, 2.35 656.88" stroke="#495057" stroke-width="1" fill="none"></path></g></g><g stroke-linecap="round"><g transform="translate(109.97828984558589 10.539942201077906) rotate(0 1.0483853502738896 329.2408553984761)"><path d="M-1.79 1.25 C-2.33 110.65, -1.71 549.07, -1.35 659.02 M2.43 -0.54 C2.6 109.15, 4.64 544.75, 3.97 654.3" stroke="#495057" stroke-width="1" fill="none"></path></g></g><g stroke-linecap="round"><g transform="translate(165.978289845586 15.539942201077906) rotate(0 0.06146610328931956 329.6487058296799)"><path d="M-1.99 0.52 C-1.63 110.48, 0.14 551.07, 0.38 660.96 M2.12 -1.66 C2.25 107.44, -1.15 547.83, -2 657.28" stroke="#495057" stroke-width="1" fill="none"></path></g></g><g stroke-linecap="round"><g transform="translate(211.978289845586 15.539942201077906) rotate(0 0.3471687944419273 329.39341948666606)"><path d="M-0.8 0.57 C-0.65 110.42, 1.41 549.16, 1.5 658.96 M0.97 -0.17 C1 109.32, 0.8 547.47, 1 657.08" stroke="#495057" stroke-width="1" fill="none"></path></g></g><g stroke-linecap="round"><g transform="translate(259.978289845586 15.539942201077906) rotate(0 0.8566257694270689 329.5032647930924)"><path d="M0.85 0.46 C0.94 110.26, -0.34 549.83, -0.26 659.35 M-0.16 -0.34 C0.38 109.07, 1.79 547.89, 1.97 657.68" stroke="#495057" stroke-width="1" fill="none"></path></g></g><g stroke-linecap="round"><g transform="translate(310.9782898455859 14.539942201077906) rotate(0 0.37592326642942453 329.6836535322667)"><path d="M-0.69 0.83 C-0.29 110.33, 1.37 548.5, 1.44 657.92 M1.15 0.22 C1.54 109.79, 0.75 549.52, 0.91 659.15" stroke="#495057" stroke-width="1" fill="none"></path></g></g><g stroke-linecap="round"><g transform="translate(362.9782898455859 12.539942201077906) rotate(0 -0.15941644217758721 329.0972525423392)"><path d="M-2.17 -1.45 C-1.74 108.91, 1 549.28, 1.42 659.65 M1.84 3.93 C2.08 113.67, 0.18 546.5, -0.39 655.26" stroke="#495057" stroke-width="1" fill="none"></path></g></g><g stroke-linecap="round"><g transform="translate(412.978289845586 16.539942201077906) rotate(0 0.7981806354060836 330.1988475181535)"><path d="M-1.45 0.78 C-0.73 110.84, 1.07 548.36, 1.79 658.2 M2.96 -1.27 C3.63 109.45, 0.28 552.29, 0.18 661.67" stroke="#495057" stroke-width="1" fill="none"></path></g></g><g stroke-linecap="round"><g transform="translate(464.978289845586 17.539942201077906) rotate(0 -0.703627768970648 330.0329221206158)"><path d="M0.78 1.15 C1.2 111.52, 0.15 550.77, 0.35 660.76 M-2.24 -0.7 C-2.03 109.05, -2.57 547.36, -2.05 656.98" stroke="#495057" stroke-width="1" fill="none"></path></g></g><g stroke-linecap="round"><g transform="translate(512.978289845586 17.539942201077906) rotate(0 0.6184296715073287 328.4393623140454)"><path d="M1.15 -0.3 C1.87 109.54, 2.56 550.13, 2.91 659.81 M-1.67 -2.93 C-0.98 106, 1.14 544.94, 1.9 655.51" stroke="#495057" stroke-width="1" fill="none"></path></g></g><g stroke-linecap="round"><g transform="translate(558.9782898455859 16.539942201077906) rotate(0 -0.5536783794016742 329.32282114904376)"><path d="M0.94 -1.42 C0.77 108.36, 1.24 550.47, 0.96 660.07 M-2 3.98 C-2.69 112.82, -0.9 546.91, -1.11 655.91" stroke="#495057" stroke-width="1" fill="none"></path></g></g><g stroke-linecap="round"><g transform="translate(610.9782898455859 14.539942201077906) rotate(0 0.8260658357478974 328.8208437830024)"><path d="M0.8 -0.58 C0.86 108.83, -0.34 547.26, -0.29 657.31 M-0.24 1.73 C0.26 111.17, 1.79 548.85, 1.94 658.22" stroke="#495057" stroke-width="1" fill="none"></path></g></g><g stroke-linecap="round"><g transform="translate(666.9782898455859 19.539942201077906) rotate(0 0.9706723887659336 329.2275671054796)"><path d="M0.31 1.57 C0.03 111.17, -0.73 546.63, -0.74 656.15 M-2.96 -0.05 C-2.39 109.95, 4.72 548.18, 4.9 658.5" stroke="#495057" stroke-width="1" fill="none"></path></g></g><g stroke-linecap="round"><g transform="translate(712.9782898455859 19.539942201077906) rotate(0 0.8372404597533887 329.79661224795507)"><path d="M-0.6 1.18 C-0.8 110.8, -0.24 549.21, -0.07 658.84 M1.29 0.75 C1.38 110.51, 2.57 547.55, 2.26 656.9" stroke="#495057" stroke-width="1" fill="none"></path></g></g><g stroke-linecap="round"><g transform="translate(760.9782898455859 19.539942201077906) rotate(0 0.39770477840681906 330.0202331581712)"><path d="M-1.39 -2.35 C-1.4 107.17, -0.47 548.79, 0.21 658.67 M3.05 2.54 C2.6 112.42, -2.09 552.95, -2.26 662.39" stroke="#495057" stroke-width="1" fill="none"></path></g></g><g stroke-linecap="round"><g transform="translate(800.9782898455859 20.539942201077906) rotate(0 1.0361259705759949 328.4487602892518)"><path d="M-1.12 -2.64 C-1.29 106.79, 0.14 546.19, 0.77 656.82 M3.47 2.1 C2.78 111.84, -1.14 550.37, -1.4 659.54" stroke="#495057" stroke-width="1" fill="none"></path></g></g><g stroke-linecap="round"><g transform="translate(852.9782898455859 18.539942201077906) rotate(0 0.2775910766608831 329.5432296247128)"><path d="M-0.66 0.33 C-0.41 110.14, 0.81 550.03, 1.22 659.63 M1.19 -0.54 C1.36 108.89, 0.5 548.19, 0.57 658.1" stroke="#495057" stroke-width="1" fill="none"></path></g></g><g stroke-linecap="round"><g transform="translate(908.9782898455859 23.539942201077906) rotate(0 0.1767144390963722 327.77134583491835)"><path d="M1.44 -0.47 C1.81 108.46, 1.37 546.93, 1.22 656.3 M-1.23 -3.2 C-1.09 107.22, -0.69 548.65, -0.7 658.74" stroke="#495057" stroke-width="1" fill="none"></path></g></g><g stroke-linecap="round"><g transform="translate(954.9782898455859 23.539942201077906) rotate(0 -0.8261461419923535 329.2566494706274)"><path d="M1.69 0.46 C1.24 110.06, 0.22 550.88, -0.41 660.27 M-0.83 -1.76 C-1.96 108.25, -3.91 546.09, -3.21 656.23" stroke="#495057" stroke-width="1" fill="none"></path></g></g><g stroke-linecap="round"><g transform="translate(1002.9782898455859 23.539942201077906) rotate(0 -0.45786960324267056 330.10780295066536)"><path d="M-0.16 1.96 C-0.28 111.78, -2.16 550.24, -2.13 659.66 M-3.69 0.56 C-2.87 109.46, 2.51 545.1, 2.77 655.28" stroke="#495057" stroke-width="1" fill="none"></path></g></g><g stroke-linecap="round"><g transform="translate(18.48914492279289 75.14537406444546) rotate(0 513.6210399654695 2.0526969379186966)"><path d="M-2.12 0.89 C169.24 1.53, 858.19 1.78, 1029.36 2.13 M1.93 -1.1 C173.03 0.09, 857.05 4.03, 1028.52 5.21" stroke="#495057" stroke-width="1" fill="none"></path></g></g><g stroke-linecap="round"><g transform="translate(19.48914492279289 118.14537406444546) rotate(0 515.4214443616011 1.2275518983602893)"><path d="M2.58 -1.01 C173.75 -0.67, 853.82 2.32, 1024.91 2.96 M0.54 -4.03 C172.8 -3.3, 858.96 4.86, 1030.3 6.49" stroke="#495057" stroke-width="1" fill="none"></path></g></g><g stroke-linecap="round"><g transform="translate(22.48914492279289 156.1453740644455) rotate(0 513.6332169798204 1.7389719527959926)"><path d="M-1.86 -0.18 C169.23 0.45, 857.51 2.42, 1029.13 2.79 M2.32 -2.75 C173.02 -1.58, 857.45 5.01, 1028.17 6.23" stroke="#495057" stroke-width="1" fill="none"></path></g></g><g stroke-linecap="round"><g transform="translate(23.48914492279289 199.1453740644455) rotate(0 514.0259543917142 1.0553115934133643)"><path d="M2.35 -0.35 C173.98 0.03, 856.84 1.86, 1027.86 2.07 M0.19 -3.01 C171.7 -2.23, 854.98 4.14, 1026.22 5.12" stroke="#495057" stroke-width="1" fill="none"></path></g></g><g stroke-linecap="round"><g transform="translate(19.48914492279289 240.1453740644455) rotate(0 513.3657368526422 -0.3724184376001176)"><path d="M1.09 -1.07 C172.11 -0.86, 857.58 0.23, 1028.49 0.94 M-1.76 -4.12 C168.83 -3.59, 856.12 1.64, 1027.19 3.38" stroke="#495057" stroke-width="1" fill="none"></path></g></g><g stroke-linecap="round"><g transform="translate(20.48914492279289 283.1453740644455) rotate(0 512.8922396016308 1.5525126565434277)"><path d="M-0.72 0.35 C170.46 0.75, 855.35 3.12, 1026.5 3.62 M1.1 -0.52 C172.16 0.03, 854.74 0.87, 1025.41 1.75" stroke="#495057" stroke-width="1" fill="none"></path></g></g><g stroke-linecap="round"><g transform="translate(19.48914492279289 327.1453740644455) rotate(0 513.2353235537746 1.8217374724194713)"><path d="M-0.57 1.29 C170.44 1.97, 854.01 3.59, 1025.23 4.18 M-4.32 -0.47 C167.69 -0.67, 859.26 -0.38, 1030.79 -0.27" stroke="#495057" stroke-width="1" fill="none"></path></g></g><g stroke-linecap="round"><g transform="translate(20.48914492279289 370.14537406444543) rotate(0 513.1719021272846 1.5743592081219333)"><path d="M-0.93 -1.19 C170.15 -0.37, 856.06 3.66, 1027.27 4.34 M0.78 0.8 C171.68 1.37, 855.82 2.31, 1026.59 2.84" stroke="#495057" stroke-width="1" fill="none"></path></g></g><g stroke-linecap="round"><g transform="translate(23.48914492279289 408.14537406444555) rotate(0 512.6349231031725 2.5464515191689543)"><path d="M-2.65 1.18 C168.59 2, 856.43 5.61, 1027.92 5.74 M1.11 -0.65 C172.03 -0.62, 855.78 1.29, 1026.3 2.14" stroke="#495057" stroke-width="1" fill="none"></path></g></g><g stroke-linecap="round"><g transform="translate(24.48914492279289 451.14537406444555) rotate(0 513.875051453095 2.6595716586709273)"><path d="M1.18 1.14 C172.61 2.02, 858.64 2.28, 1029.37 2.66 M-1.62 -0.71 C169.59 0.85, 857.75 4.8, 1028.54 6.03" stroke="#495057" stroke-width="1" fill="none"></path></g></g><g stroke-linecap="round"><g transform="translate(20.48914492279289 492.14537406444555) rotate(0 512.3040653345549 3.236160210967057)"><path d="M1.14 2.6 C172.63 2.72, 855.31 1.62, 1026.29 1.95 M-1.69 1.54 C169.63 1.93, 852.62 5.21, 1023.8 4.94" stroke="#495057" stroke-width="1" fill="none"></path></g></g><g stroke-linecap="round"><g transform="translate(21.48914492279289 535.1453740644456) rotate(0 513.0731372821144 1.9821680989862216)"><path d="M2.6 -0.48 C173.33 -0.1, 854.64 3.15, 1025.59 3.4 M0.56 -3.21 C170.71 -2.43, 851.59 6.13, 1022.7 7.17" stroke="#495057" stroke-width="1" fill="none"></path></g></g><g stroke-linecap="round"><g transform="translate(25.48914492279289 570.1453740644456) rotate(0 512.6131751618349 2.115361494421961)"><path d="M-0.02 -0.03 C171.45 0.19, 857.58 2.8, 1028.7 3.13 M-3.48 -2.52 C167.81 -1.97, 856.12 5.59, 1027.51 6.75" stroke="#495057" stroke-width="1" fill="none"></path></g></g><g stroke-linecap="round"><g transform="translate(26.48914492279289 613.1453740644456) rotate(0 513.1196835062468 1.220829553008116)"><path d="M1.93 -0.02 C173.05 0.31, 855.91 1.87, 1026.71 1.95 M-0.47 -2.49 C170.28 -1.78, 853.55 4.16, 1024.43 4.93" stroke="#495057" stroke-width="1" fill="none"></path></g></g><g stroke-linecap="round"><g transform="translate(22.48914492279289 654.1453740644456) rotate(0 513.6846093182453 1.676591321527951)"><path d="M-1.81 1.86 C169.31 2.42, 857.6 0.76, 1029.17 0.67 M2.41 0.4 C173.15 1.47, 857.59 2.45, 1028.24 2.95" stroke="#495057" stroke-width="1" fill="none"></path></g></g><g stroke-linecap="round"><g transform="translate(10.489144922792889 29.145374064445548) rotate(0 514.9638496358134 2.1439699668023593)"><path d="M1.92 2.64 C173.06 3.78, 854.51 4.22, 1024.99 4.39 M-0.49 1.61 C171.72 2.13, 858.58 -0.85, 1030.42 0.06" stroke="#495057" stroke-width="1" fill="none"></path></g></g><g stroke-linecap="round" transform="translate(107.97828984558589 75.53994220107796) rotate(0 179 125.5)"><path d="M0 0 C0 0, 0 0, 0 0 M0 0 C0 0, 0 0, 0 0 M0.38 7.33 C1.87 5.65, 3.89 1.98, 5.83 1.4 M-0.45 6.77 C2.05 5.55, 2.31 3.66, 5.47 -0.23 M-1.61 12.15 C6.31 6.66, 8 6.09, 12.58 -2.3 M1.01 12.84 C2.26 7.84, 6.05 3.71, 9.91 -0.76 M0.32 19.38 C8.5 15.44, 13.93 3.81, 16.59 -2.8 M-1.13 19.92 C3.67 13.01, 11.49 8.35, 14.86 1.59 M2.03 23.92 C9.48 18.18, 11.76 9.58, 24.14 -0.92 M-1.23 24.43 C6.48 16.71, 12.12 8.81, 22.81 1.22 M-0.27 32.46 C4.76 24.39, 9.57 20.27, 28.08 2.88 M1.92 29.7 C7.64 22.95, 18.01 13.74, 26.68 -1.17 M1.53 37.58 C5.6 25.19, 9.55 20.59, 35.8 -3 M-0.76 38.26 C7.71 29.44, 15.53 16.42, 33.83 -0.63 M0.93 42.14 C11.24 32.51, 14.2 22.29, 36.29 -1.72 M-1.22 42.18 C5.83 35.28, 16.93 26.6, 35.6 -0.22 M2.72 47.69 C19.15 30.63, 32.42 10.55, 45.32 -3.9 M-1.24 47.33 C15.7 32.22, 29.08 12.59, 41.69 -1.03 M3.45 55.34 C19.9 33.48, 33.24 13.72, 48.07 0.51 M1.23 55.98 C17.58 34.8, 34.65 18.56, 45.95 1.73 M-1.92 57.86 C8.09 47.09, 28.92 29.29, 52.19 2.38 M1.9 62.82 C11.7 47.44, 24.51 31.08, 52.7 0.63 M0.38 64.58 C14.4 53.35, 32.94 33.43, 54.51 -2.52 M-0.22 65.57 C16.5 50.55, 33.32 28.52, 58.51 0.04 M-3.08 73.75 C26.75 45.83, 47.51 18.33, 62.07 2.66 M-1.72 73.22 C25.55 42.73, 49.74 13.79, 62.56 -1.99 M0.92 80.93 C18.62 54.62, 35.73 35.04, 66.85 -0.07 M0.33 80.22 C23.68 53.93, 46.53 24.78, 68.42 -1.79 M-3.25 83.84 C17.74 62.85, 39.54 42.25, 74.81 0.58 M-0.04 83.13 C25.48 53.95, 51.04 25.91, 74.38 -0.12 M-1.47 94.52 C25.38 56.39, 54.66 26.15, 80.56 -2.62 M-1.8 90.59 C22.77 59.47, 48.57 32.93, 79.25 1.78 M2.62 96.17 C24.66 72.57, 46.61 41.88, 88.45 -3.41 M-1.3 96 C24.8 71.11, 47.93 41.69, 84.69 0.1 M1.5 99.55 C19.83 80.45, 37.51 53.57, 87.24 2.19 M-1.19 103.67 C31.8 65.85, 61.59 33.91, 88.98 0.43 M1.7 107.34 C29.07 74.72, 65.07 35.56, 95.21 -0.06 M-1.32 109.1 C30.33 77.21, 57.97 44.17, 97.41 -0.36 M-3.71 115.03 C36.39 72.78, 76.91 31.55, 102.74 -2.47 M-1.06 113.54 C41.45 74.84, 78.46 30.98, 99.99 1.89 M3.43 119.03 C29.94 86.7, 63.41 49.66, 109.5 0.71 M-1.52 120.06 C27.95 95.61, 51.78 65.3, 105.87 0.53 M-1.08 125.53 C33.46 91.51, 62.49 62.75, 115.04 -2.62 M0.15 128.13 C23.9 102.05, 45.09 77.88, 113.07 -1.97 M-1.95 130.94 C33.58 99.98, 60.87 61.39, 115.28 -1.48 M-0.22 133.87 C36.03 91.96, 73.63 49.67, 118.16 0.69 M-2.45 138.19 C41.55 98.39, 79.57 56.46, 120.36 2.52 M1.36 140.2 C28.25 111.26, 51.64 82.88, 121.39 -1.21 M0.01 145.63 C47.26 89.88, 97.87 35.27, 128.63 3.58 M0.63 145.57 C38.07 101.93, 77.95 57.12, 125.74 0.83 M0.5 151.32 C44.61 100.33, 93.58 48.8, 134.8 -3.09 M0.85 153.72 C43.57 99.52, 85.98 48.24, 132.57 -1.63 M2.88 157.39 C33.13 124.05, 63.03 89.2, 134.31 -2.49 M0.73 159.06 C39.18 107.04, 84.2 56.87, 137.5 -0.8 M2.78 163.02 C42.18 110.39, 89.99 61.34, 143.65 -1.83 M1.17 163.7 C32.67 131.62, 60.53 96.41, 142.68 0.3 M-3.44 168.68 C45.53 119.14, 88.53 67.92, 146.48 -2.94 M-1.17 170.28 C34.23 134.32, 64.7 97.31, 148.35 1.55 M-0.95 176.16 C62.72 112.34, 117.11 48.2, 151.52 -0.19 M-1.37 176.84 C57.12 112.03, 115.88 44.27, 153.9 1.27 M0.44 182.73 C39.79 136.89, 83.64 87.13, 158.91 3.25 M0.54 181.26 C40.21 137.66, 78.43 92.53, 160.44 -1.2 M-1.33 188 C32.3 146.59, 64.45 107.83, 162.55 -1.44 M-1.24 189.24 C46.41 138.71, 92.29 88.12, 165.14 -0.02 M0.06 197.51 C43.69 143.87, 91.71 93.95, 171.18 1.74 M-1.16 194.81 C63.99 121.71, 127.99 47, 170.24 -0.06 M-2.32 204.08 C60.35 134.49, 115.64 68.63, 177.34 -3.06 M-0.09 202.47 C43.99 150.86, 91.55 97.07, 174.23 -1.44 M-1.55 204.07 C65.65 131.6, 130.3 62.95, 178.44 -0.72 M-1.19 207.2 C63.84 135.89, 127.39 64.55, 180.44 -0.29 M-1.41 213.62 C66.21 136.39, 131.47 58.93, 184.32 -0.68 M1.42 213.2 C72.21 130.99, 142.65 52.02, 185.65 0.45 M-2.24 221.57 C75.51 135.86, 151.06 47.28, 193.11 -0.58 M-1.49 220.53 C51.23 160.53, 104.76 99.81, 191.43 0.35 M2.79 227.81 C71.16 143.16, 142.46 59.75, 194.2 -3.19 M1.37 224.56 C78.54 138.23, 157.85 49.76, 196.27 -0.13 M-1.03 234.59 C47.75 173.49, 98.68 121.57, 198.61 -0.02 M-0.15 231.61 C72.62 145.32, 147.99 60.59, 200.25 0.24 M1.66 239.88 C59.98 171.71, 123.48 99.34, 205.08 0.76 M0.55 238.64 C70.13 157.86, 140.02 73.4, 206.47 -1.01 M1.24 245 C81.53 150.48, 161.91 59.06, 212.8 2.46 M0.22 244.02 C54.41 179.7, 108.3 113.83, 210.88 -1.23 M2.31 248.04 C71.15 171.53, 140.53 88.68, 218.11 -1.74 M-0.08 250.51 C50.08 192.7, 99.56 133.2, 218.24 -0.26 M4.51 255.33 C82.28 170.28, 154.59 81.56, 220.33 -2.07 M2.15 251.84 C65.07 182, 126.62 111.97, 223.66 0.14 M6.22 250.55 C94.37 157.46, 180.52 54.45, 229.2 1.15 M7.05 252 C70.4 176.44, 137.87 99.49, 228.31 -0.11 M11.7 250.47 C66.98 194.64, 116.73 130.39, 232.69 2.68 M13.69 253.12 C95.44 159.52, 174.38 67.01, 231.98 0.99 M20.25 255.07 C66.1 202.66, 112.81 145.97, 236.62 -0.87 M18.08 252.75 C97.14 162.94, 175.1 75.51, 237.17 0.91 M25.38 252 C73.82 193.94, 123.47 133.02, 246.37 0.86 M22.62 253.68 C106.69 160.08, 187.05 65.36, 245.05 0.18 M29 255.46 C81.8 197.14, 131.39 140.04, 251.41 -2.19 M29.39 252.68 C82.51 197.97, 132.68 139.54, 247.52 0.64 M36.55 255.89 C91.73 181.4, 158.93 109.59, 256.69 1.55 M34.93 254.84 C105.06 175.93, 173.19 98.06, 254.11 -0.01 M40.08 251.19 C108.47 178.65, 174.07 97.53, 258.51 -1.16 M40.9 252.1 C115.99 164.11, 194.7 73.96, 259.04 -0.73 M42.46 254.21 C127.26 155.69, 215.16 51.52, 265.82 -1.8 M45.49 252.15 C123.36 165.94, 201.9 74.45, 266.18 -0.63 M51.8 253.06 C106.78 191.07, 161.82 130.92, 270.62 -0.34 M49.44 253.45 C136.57 152.29, 222.4 52.95, 269.61 0.35 M57.28 250.95 C134.52 160.51, 220.02 68.44, 274.71 -1.75 M55.48 252.61 C110.43 184.94, 170.24 117.16, 275.78 0.72 M61.22 253.51 C122.05 185.63, 177.76 120.03, 281.65 2.25 M60.88 251.77 C141.03 162.34, 220.16 73.32, 281.45 -0.61 M65.7 254.67 C122.63 189.21, 179.63 122.87, 285.78 -1.07 M65.01 252.49 C129.59 179.11, 194.94 104.79, 285.07 0.42 M72.3 250.95 C132.86 187.29, 194.37 114.8, 291.08 -0.25 M72.61 252.32 C143.23 168.06, 215.4 84.59, 291.65 1.42 M74.1 254.3 C135.91 185.79, 195.72 115.7, 294.85 0.71 M77.14 252.18 C144.7 177.52, 208.15 105.16, 297.19 0.99 M82.37 252.44 C136.41 191.14, 186.96 134.17, 301.19 0.64 M82.94 252.96 C154.18 171.61, 227.44 87.56, 301.63 0.71 M86.25 254.11 C156.57 166.93, 231.21 86.63, 310 -0.77 M88.5 252.11 C143.37 188.02, 198.98 125.51, 306.78 -1.04 M90.21 254.77 C134.57 197.83, 179.52 149.28, 314.37 -0.86 M92.51 253.68 C152.46 190.51, 207.88 125.03, 313.09 1.06 M95.3 254.88 C161.85 177.57, 228.09 99.03, 316.5 -1.27 M98.67 254.14 C169.04 167.57, 240.6 87.1, 317.53 -0.34 M104.22 252.6 C168.34 182.97, 230.14 105.19, 325.08 -0.55 M102.88 252.48 C175.85 168.99, 247.48 82.88, 323.92 0.95 M107.99 251.22 C178.67 175.21, 249.7 96.63, 328.07 -1.37 M108.85 252.11 C153.96 200.27, 195.94 148.48, 330 -0.27 M112.64 251.91 C176.4 173.81, 245.32 100.3, 333.26 2.27 M115.24 252.15 C173.21 189.33, 230.27 123.61, 335.03 0.24 M120.41 255.77 C175.56 182.77, 235.58 113.16, 341.03 1.59 M117.82 252.04 C198.14 161.22, 280.47 66.56, 340.35 -0.74 M124.12 251.15 C179.08 189.48, 235.96 124.68, 347.12 2.1 M123.6 253.55 C191.01 179.75, 253.71 107.98, 343.53 -1.13 M131.48 253.46 C213.94 164.04, 295.01 69.78, 347.12 0.8 M128.68 251.93 C176.87 200.13, 221.15 148.78, 349.04 1.15 M137.29 255.48 C209.18 170.96, 280.43 90.64, 353.36 0.74 M134.43 252.24 C204.42 176.98, 273 98.41, 354.9 0.9 M140.22 252.64 C213.78 165.5, 286.78 82.75, 359.76 1.95 M139.42 253.9 C206.6 175.54, 272.65 101.05, 358.81 2.17 M146.19 254.85 C198.57 187.14, 255.5 125.01, 356.51 6.72 M146.34 253.05 C228.56 158.03, 313.58 62.73, 358.89 7.18 M148.39 255.59 C195.59 198.83, 239.72 150.07, 361.83 12.54 M149.57 251.97 C228.03 165.13, 304.26 77.45, 358.77 13.21 M154.99 252.67 C228.17 162.14, 304.03 80.91, 359.87 20 M155.44 254.5 C200.02 199.46, 249.46 143.36, 360.17 20.29 M163.86 255.49 C241.19 162.36, 315.88 77.41, 359.08 27.03 M161.91 252.52 C216.51 185.24, 275.91 120.38, 358.04 26.81 M167.79 255.39 C234.06 174.53, 302.35 94.16, 359.61 32.7 M167.94 254.9 C232.16 181.82, 291.41 111, 360.86 30.21 M174.68 255.62 C232.8 185.79, 285.11 123.58, 356.48 38.2 M172.31 253.9 C228.36 191.26, 281.71 129.16, 360.46 38.31 M178.63 252.59 C224.56 197.55, 275.95 143.27, 359.23 43.16 M178.18 254.65 C243.15 180.2, 306.63 106.32, 359.16 44.59 M179.78 255.76 C219.19 213.63, 255.85 172.64, 356.22 50.33 M182.6 252.65 C244.72 178.03, 310.79 102.3, 359.88 48.86 M185.65 255.28 C247.99 182.57, 303.68 118.51, 359.05 55.65 M187.19 251.94 C224.59 207.74, 264.56 161.55, 360.65 57.06 M194.41 254.68 C260.62 179.12, 327.38 105.66, 356.82 61.58 M193.62 251.41 C234.69 207.65, 275.15 160.26, 359.35 61.42 M201.73 250.35 C249.06 185.21, 305.86 125.24, 361.68 68.44 M198.94 253.86 C241.58 202.69, 286.05 153.29, 357.63 69.59 M202.53 253.32 C254.07 193.49, 300.81 137.08, 361.74 73.92 M203.3 251.62 C238.56 212.62, 275.49 169.66, 360.13 73.56 M205.88 254.22 C255.83 202.97, 298.27 154.06, 357.83 80.97 M208.96 252.35 C261.84 193.26, 315.13 133.35, 358.26 80.18 M217.22 251.77 C266.12 194.72, 316.95 135.69, 362.29 84.12 M214.83 251.48 C270.98 193.02, 323.15 130.38, 359.04 85.97 M218.44 251.09 C260.51 207.26, 299.2 154.05, 359.01 94.25 M218.64 251.53 C249.17 219.52, 279.16 187.03, 358.85 91.05 M224.9 252.62 C249.82 224.66, 280.32 192, 356.19 97.59 M225.06 254.46 C262.28 209.99, 297.54 165.69, 359.37 98.01 M231.91 256.73 C267.36 211.16, 298.9 167.87, 360.36 100.7 M230.92 253.46 C277.01 199.04, 322.67 142.43, 361.17 104.85 M236.19 250.09 C268.22 217.72, 292.69 186.75, 363.23 108.75 M236.32 253.47 C270.37 212.41, 307.25 170.09, 358.36 110.6 M239.13 250.87 C273.96 208.82, 308.24 171.32, 355.35 119.24 M240.84 251.99 C284.74 206.03, 326.65 156.74, 358.81 115.83 M248.1 256.66 C274.67 224.02, 298.96 199.33, 357.77 123.35 M247.83 253.81 C288.85 209.7, 325.38 163.64, 359.1 121.14 M254.95 256.63 C277.98 226.82, 302.03 191.38, 359.6 126.21 M252.26 253.22 C279.21 219.55, 309.8 182.6, 357.6 131.31 M260.54 252.38 C290.78 214.65, 326.73 167.83, 362.43 131.73 M256.35 254.58 C286.62 218.76, 319.79 182.2, 360.16 133.87 M264.59 250.29 C290.81 221.31, 314.91 190.18, 363.02 142.77 M260.62 254.61 C289.84 217.93, 320.6 184.47, 357.89 143.17 M267.64 249.93 C288.18 224.65, 319.11 202.84, 357.72 145.97 M269.07 254.52 C300.65 211.08, 336.52 172.1, 360.84 146.97 M275.47 252.91 C296.39 225.83, 315.23 204.29, 360.38 156.15 M274.75 254.71 C301.81 220.14, 330.56 188.28, 359.08 154.65 M281.76 255.03 C309.31 218.46, 341.34 183.57, 360.3 160.7 M277.63 254.73 C305.87 219.34, 336.99 182.83, 357.81 159.43 M281.2 254.37 C302.79 226.97, 329.52 208.42, 362.62 164.39 M282.89 251.17 C306.56 225.89, 332.33 196.74, 361 167.04 M292.09 251.47 C310.29 219.99, 343.12 193.84, 359.04 169.61 M286.72 253.65 C317.39 220.77, 344.09 185.46, 359.2 173.64 M297.54 249.38 C318.43 231.7, 336.97 200.04, 360.21 181.11 M294.68 254.73 C308.09 236.36, 324.26 221.06, 357.22 178.52 M300.02 253.85 C315.02 231.76, 331.95 211.46, 361.68 182.46 M299.44 253.83 C320.74 227.28, 341.83 206.63, 361.18 182.3 M302.5 249.43 C315.51 236.41, 336.65 214.19, 361.79 188.44 M303.17 251.21 C316.63 241.74, 327.71 230.06, 359.66 191.09 M307.1 255.59 C326.15 239.68, 338.2 218.33, 358.13 197.84 M311.29 251.88 C323.9 237.82, 335.67 222.65, 361.32 195.2 M312.21 254.86 C327.15 242.66, 332.85 232.64, 362.2 201.63 M314.81 251.54 C333.66 233.38, 352.18 214.35, 360.72 201.08 M319.1 256.92 C333.35 244.25, 340.93 234.65, 355.83 207.86 M320.17 252.53 C331.99 239.23, 348.25 221.51, 359.97 210 M329.05 250.79 C336.41 236.73, 353.94 227.75, 357.14 213.97 M327.49 253.74 C339.12 236.77, 353.08 222.79, 357.84 214.21 M333.97 252.88 C341.94 243.07, 344.44 234.84, 362.39 223.23 M332.42 254.59 C340.05 242.86, 349.19 229.35, 360.83 219.17 M337.54 251.17 C344.16 241.72, 353.65 232.5, 362.5 225.56 M336.46 252.93 C342.28 246.26, 348.19 235.48, 358.86 228.23 M337.82 253.31 C343.45 251.84, 346.1 246.33, 361.62 233.7 M340.74 252.98 C348.77 246.8, 355.04 239.62, 361.04 232.56 M348.29 254.57 C354.75 247.13, 353.3 243.45, 361.42 239.99 M348.28 251.46 C349.78 248.61, 354.18 244.23, 359.35 239.75 M350.47 254.15 C356.18 250.93, 355.85 245.65, 359.88 242.82 M351.18 252.94 C354.94 251.68, 356.86 247.89, 359.67 244.6 M0.25 251.22 C0.25 251.22, 0.25 251.22, 0.25 251.22 M0.25 251.22 C0.25 251.22, 0.25 251.22, 0.25 251.22 M7.12 250.78 C3.62 248.51, 4.73 247.66, -0.42 245.21 M6.55 251.48 C4.07 248.55, 3.16 248.03, -0.09 245.09 M11.15 252.58 C11.34 250.89, 9.66 246.79, 2.33 237.72 M12.58 251.98 C9.23 248.32, 4.84 245, 1.73 239.32 M15.89 251.74 C15.66 246.9, 6.5 244.17, -3.02 235.96 M15.93 252.13 C12.01 245.96, 4.64 238.08, 0.98 235.14 M24.51 254.76 C17.48 241.87, 8.49 240.32, 0.26 228.19 M23.03 250.22 C18.37 247.84, 13.53 240.64, -0.82 231.72 M30.96 253.42 C25.06 246.19, 9.58 233.8, 3.24 226.52 M32.11 249.35 C24.94 245.69, 18.05 238.7, -1.42 225.39 M33.32 246.93 C23.49 235.14, 11.47 222.55, 2.29 221.32 M37.15 251.2 C23.57 241.42, 8.51 228.75, 1.49 217.67 M39.73 254.38 C33.27 240.29, 19.39 229.96, 1.37 213.41 M41.32 252.19 C26.7 236.62, 10.45 221.02, 1.64 213.66 M46.95 252.3 C34.43 239.6, 26.66 235.66, -2.03 205.39 M48.71 250.8 C33.01 237.85, 13.86 222.73, 1.32 209.21 M58.24 254 C38.26 237.21, 21.95 220.25, 0.96 202.53 M53.48 250.78 C43.85 239.75, 32.57 230.41, -1.61 201.61 M62 255.14 C39.85 233.83, 25 215.78, 0.48 196.17 M59.59 252.46 C38.4 231.07, 13.28 209.56, -0.63 196.77 M69.9 253.81 C46.5 230.87, 24.22 217.29, 1.8 188.56 M66.16 252.69 C42.36 231.34, 17.48 207.19, -1.52 191.96 M71.01 250.61 C56.5 233.36, 34.32 219.92, 3.21 184.26 M74.78 250.72 C52.86 233.74, 33.24 215.4, -1.27 186.9 M78.37 254.18 C52.41 228.67, 15.65 199.69, -2.13 183.02 M79.33 249.57 C50.48 223.43, 20.62 198.14, -1.04 182.55 M86.95 252.6 C66.52 234.72, 48.45 214, -0.27 179.1 M84.99 249.2 C67.74 232.59, 48.58 216.39, -1.09 176.22 M88.21 250.91 C63.01 230.84, 40.34 204.81, -1.91 170.88 M90.12 251.85 C65.76 226.94, 33.77 198.08, -0.96 172.96 M96.24 247.19 C67.21 219.55, 30.7 188.46, 3.78 164.89 M97.53 251.95 C74.65 231.27, 50.28 209.75, 1.82 165.44 M105.92 252.68 C65 216.16, 28.39 182.14, 3.29 159.96 M103.82 252.04 C76.48 230.66, 54.28 208.1, -0.92 159.89 M111.48 253.27 C78.6 228.62, 46.85 198.55, -2.67 152.69 M111.15 250.11 C72 217.62, 29.64 181.17, 1.78 157.4 M116.45 248.93 C89.72 225.77, 65.6 200.48, -1.23 148.87 M116.37 250.75 C69.59 212.38, 24.22 177.57, -0.9 151.12 M120.22 255.19 C89.14 222.93, 57.86 198.3, -1.51 144.34 M122.75 252.57 C77.72 209.54, 27.95 167.26, -0.5 142.99 M124.18 251.27 C90.34 223.19, 55.88 187.05, 3.26 136.36 M129.36 252.02 C92.08 218.86, 54.1 185.1, 1.78 140.86 M133.91 252.14 C89.56 206.37, 37.3 171.72, 1.59 136.51 M134.36 249.36 C81.06 210.9, 33.46 167.28, 0.12 135.22 M142.44 250.76 C99.54 218.2, 51.62 179.56, 1.67 126.02 M141.56 250.62 C103.1 218.31, 67.4 185.35, -0.8 128.39 M148.47 250.11 C101.39 209.99, 49.19 158.37, -2.86 124.68 M147.7 249.55 C100.24 213.21, 53.54 175.9, -0.82 123.19 M154.28 251.31 C92.52 198.94, 27.55 149.06, -2.59 121.84 M151.94 251.44 C120.05 222.5, 91.77 196.91, -1.02 119.98 M160.91 247.64 C93.5 191.71, 32.72 141.58, -0.17 114.88 M159.04 252.45 C112.54 215.88, 68.97 177.25, 0.51 113.97 M162.32 253.32 C98.65 200.2, 37.88 142.26, -1 109.86 M165.69 251.48 C109.69 205.5, 56.54 158.31, 1.43 107.61 M168.93 254.53 C127.96 213.68, 81.41 171.99, -2.99 104.6 M171.18 251.89 C123.45 209.11, 76 170.18, -1.09 103.08 M177.86 248.97 C107.94 194.71, 40.33 135.74, 1.99 99.43 M175.04 251.19 C137.62 216.67, 102.3 187.36, -0.14 97.25 M182.7 251.97 C141.66 215.42, 109.79 184.91, -1.42 93.72 M183.47 250.11 C110.74 185.45, 40.02 122.5, 0.28 91.88 M191.49 253.28 C142.01 205.08, 91.68 165.52, 1.08 89.45 M189.89 249.39 C114.37 185.51, 38.84 119.57, -0.68 85.2 M192.68 248.29 C121.79 192.27, 57.09 125.12, -2.88 81.27 M195.44 251.67 C144.67 209.77, 97.51 168.23, -1.13 81.57 M199 253.83 C126.42 181.69, 44.74 110.88, -0.34 73.27 M202.6 252.09 C130.46 190.23, 57.58 127.45, 0.58 76.96 M210.16 250.9 C137.46 189.32, 68.66 127.67, -1.3 68.6 M208.66 249.98 C140.39 196.43, 73.43 136.68, -0.74 71.72 M213.06 252.22 C153.68 198.31, 94.39 150.89, -0.64 67.09 M213.81 252.02 C134.97 179.31, 53.28 112.14, -0.71 65.95 M219.63 251.83 C137.32 176.4, 52.22 108.6, -0.25 62.01 M219.56 252.09 C165.63 205.4, 112.98 160.55, -1.74 59.04 M226.25 250.83 C154.15 189.61, 76.34 122.75, -2.72 56.13 M224.96 250.62 C178.11 209.67, 128.32 169.46, 0.07 54.62 M233.11 251.18 C167.42 197.87, 107.09 145.05, -1.96 52.25 M231.16 252.53 C160.1 190.2, 86.28 125.8, -0.07 48.63 M237.29 253.12 C167.45 196.8, 104 137.53, 0.99 42.34 M236.97 250.09 C177.8 197.53, 116.12 146.13, -0.61 43.04 M246.43 250.54 C157.86 178.43, 66.88 101.17, -1.99 39.77 M244.88 251.05 C151.67 174.54, 60.43 95.61, -1.06 40.31 M247.95 250.32 C153.64 166.02, 59.71 86.85, 2.1 33.46 M249.51 249.62 C153.27 169.73, 58.99 88.59, -0.72 33.39 M254.15 253.59 C164.77 170.98, 70.61 84.76, 0.29 28.66 M255.55 251.32 C171.25 181.48, 89.46 112.62, 1.05 29.02 M260.64 253.18 C200.73 193.64, 138.1 140.35, -2.54 23.5 M263.31 250.57 C187.58 188.08, 113.38 125.24, -0.23 22.99 M270.44 250.55 C207.07 194.47, 148.57 145.44, 2.29 15.97 M269.31 251.43 C209.16 205.6, 155.15 157.65, -0.78 17.7 M272.85 253.12 C189.92 171.48, 98.3 98.77, 0.93 12.9 M273.34 252.26 C179.34 162.6, 78.96 76.77, 0.51 11.5 M279.03 248.47 C175.24 153.77, 68.45 62.68, 1.89 5.82 M281.13 251.69 C180.27 165.84, 84.08 80.43, 0.09 7.66 M284.58 251.16 C211.47 182.93, 133.8 118.05, -0.99 0.13 M287.25 249.92 C227.09 202.86, 167.59 152.56, -0.36 1.71 M294.24 252.07 C207.22 176.28, 121.45 104.07, 1.36 -2.39 M293.08 251.29 C173.3 151.05, 57.65 49.29, 2.72 -0.98 M297.59 251.57 C188.75 153.22, 77.36 58.63, 8.34 -3.86 M298.4 250.57 C205.51 169.5, 110.93 87.94, 8.16 -1.95 M304.54 250.27 C200.76 165, 98.94 78.19, 15.05 -0.82 M304.4 251.73 C220.15 177.62, 138.34 107.1, 14.36 -2.48 M309.06 250.58 C200.1 155.73, 94.15 65.69, 21.67 -1.35 M310.25 250.2 C251.31 194.45, 188.46 139.97, 20.19 -0.64 M318.88 251.32 C215.5 164.62, 112.45 75.31, 25.93 -3.96 M317.37 249.92 C235.27 184.54, 156.53 113.84, 26.35 -1.06 M324.12 249.2 C219.51 154.27, 110.25 60.46, 33.88 -2.85 M323.6 250.41 C237.21 176.06, 147.52 96.81, 32.64 -2.56 M327.81 249.02 C261.98 193.85, 190.36 132.08, 37.89 -0.75 M328.47 251.09 C243.87 174.74, 159.86 101.57, 39.22 -1.67 M336.29 252.85 C242.41 172.72, 152.39 92.2, 42.56 -3.29 M334.88 252.02 C275.83 198.2, 216.78 144.39, 44.7 -2.49 M339.68 249.47 C240.26 163.04, 143.04 78.26, 50.31 -1.65 M342.11 251.64 C270.66 191.16, 205.02 134.87, 50.3 -1.73 M348.54 249.34 C230.51 148.17, 116.27 43.54, 56.04 -1.85 M346.57 250.8 C274.44 189.92, 203.85 128.53, 55.15 -2.86 M355.45 250.45 C257.51 166.55, 158.81 84.33, 64.94 -4.08 M353.65 250.48 C289.93 194.08, 224.11 139.43, 61.79 -2.54 M357.72 250.43 C247.81 155.87, 136.55 57.81, 68.16 -3.68 M359.86 249.52 C265.39 167.27, 168.44 83.32, 69.14 -2.44 M360.55 244.04 C272.21 170.86, 182.87 92.87, 75.84 -2.06 M358.93 245.72 C259.75 159.56, 160.22 73.58, 74.19 -1.26 M358.03 239.78 C273.57 171.83, 187.34 96.87, 81.25 -1.16 M358.08 240.17 C273.06 163.01, 184.68 86.26, 82.12 -2.51 M359.03 234.02 C278.5 166.56, 206.44 99.39, 86.48 -2.13 M359.19 234.21 C255.67 146.81, 156.13 61.27, 85.83 -3.4 M361.31 231.34 C263.39 146.57, 162.32 59.05, 94.14 -0.85 M358.64 230.25 C296.04 175.67, 237.2 122.05, 92.4 -1.6 M359.71 222.77 C289.19 166.42, 220.28 106.88, 99.05 -1.42 M359.59 223.68 C256.38 135.61, 160.13 52.32, 99.83 -1.52 M360.18 218.3 C291.86 165.18, 229.34 110.44, 106.03 0.05 M359.51 217.04 C308.25 173.39, 255.35 129.07, 104.76 -2.11 M358.86 215.18 C306.47 171.72, 258.58 124.16, 113.87 -2.25 M358.5 213.12 C275.88 137.17, 193.12 66.16, 112.16 -1.25 M357.37 205.9 C266.79 123.25, 167.72 40.51, 114.71 -2.96 M358.59 207.28 C262.71 122.2, 168.27 38.55, 117.39 -3.27 M359.92 201.16 C295.44 147.68, 229.84 92.86, 125.36 -0.22 M358.36 202.91 C273.98 127.61, 192.41 55.92, 122.37 -1.25 M359.15 199.39 C284.04 130.51, 208.19 66.34, 131.65 -2.24 M358.08 197.23 C301.67 147.48, 244.36 97.38, 131.38 -1.24 M359.11 189.59 C273.61 113.04, 187.48 39.6, 138.18 -0.83 M358.11 192.05 C271.28 120.37, 183.82 44.64, 135.31 -2.09 M360.84 188.83 C290.33 124.39, 220.45 65.11, 142.17 0.57 M357.87 187.15 C307.69 144.89, 259.86 101.78, 140.62 -1.91 M355.98 181.37 C316.77 143.91, 266.27 103.31, 148.64 -5.14 M359.84 182.49 C286.24 114.18, 207 45.69, 149.21 -1.29 M360.25 174.31 C289.02 109.51, 219.94 51.33, 152.34 0.07 M359.67 177.38 C304.1 124.87, 246.74 77.45, 152.65 -1.23 M358.1 171.84 C316.96 135.5, 273.72 98.64, 159.78 1.22 M359.07 169.45 C309.6 124.89, 259 83.93, 159.92 -3.25 M361.54 164.75 C296.08 105.53, 233.28 55.83, 166.79 -0.29 M359.3 166.81 C288.54 104.88, 216.44 46.1, 166.7 -0.89 M359.5 159.54 C321.45 121.62, 278.22 89.44, 169.58 -1.21 M358.43 161.47 C287.76 97.57, 214.2 32.87, 172.15 -1.78 M359.6 155.97 C317.67 116.02, 268.93 70.72, 179.28 -2.6 M357.35 154.22 C292.31 99.95, 225.86 40.64, 177.98 -3.56 M361.97 150.37 C322.59 119.6, 285.66 83.7, 185.19 -2.94 M360.42 150.55 C295.64 95.75, 233.88 41.35, 183.93 -2.92 M355.66 145.58 C308.23 97.9, 257.3 54.93, 188.76 -4.37 M358.29 143.51 C299.21 93.38, 239.7 44.68, 189.95 -0.34 M358.97 141.19 C303.24 89.96, 236.95 38.52, 196.44 -1.93 M358.58 139.07 C311.08 101.08, 264.57 58.6, 197.78 -3.67 M362.01 129.83 C312.09 90.92, 258.8 46.45, 200.8 -4.12 M358.68 132.08 C310.15 93.9, 263.01 53.17, 203.66 -1.79 M359.62 129.28 C323.62 97.72, 291.03 70.42, 206.24 -0.41 M359.6 128.96 C303.49 76.12, 249.1 27.94, 209.75 -2.35 M355.73 121.73 C312.83 91.85, 278.83 50.92, 215.15 -0.9 M358.65 122.54 C300.43 71.94, 245.25 21.59, 216.81 -2.05 M357.2 115.51 C321.16 80.31, 278.91 50.76, 223.65 -2.13 M357.03 119.6 C307.85 74.51, 254.23 28.23, 221.73 0.09 M361.43 112.42 C316.89 79.89, 278.89 42.34, 224.99 -1.54 M356.67 110.32 C315.6 74.11, 274.55 36.53, 228.67 -3.69 M362.72 110.71 C329.67 86.84, 302.61 56.07, 231.47 -1.7 M359.37 105.33 C323.56 77.06, 284.94 46.16, 234.48 -1.88 M358.12 101.9 C332.57 74.09, 309.06 58.22, 236.97 -0.74 M359.78 100.38 C314.95 62.25, 268.66 24.72, 240.42 -0.42 M361.33 98.2 C325.63 70.8, 290.96 37.77, 242.95 -1 M360.58 97.57 C329.94 74.44, 300.64 45.23, 245.31 -3.5 M361.31 90.04 C325.76 61.45, 281.93 28.19, 252.94 0.53 M358.16 90.62 C321.48 57.04, 279.26 23.07, 253.3 -2.2 M356.39 86.12 C331.29 60.12, 298.08 33.18, 254.78 0.28 M358.02 86.85 C326.07 58.8, 293.5 30.56, 259.16 -2.58 M360.43 77.57 C321.47 49.88, 286.59 22.27, 262.69 -3.83 M360.09 79.03 C335.56 57.78, 309.11 38.72, 263.68 -3.83 M357.43 71.42 C333.84 56.03, 315.36 33.16, 267.86 1.22 M358.47 76.77 C340.13 58.16, 318.23 39.64, 271.37 -0.84 M359.38 74 C331.96 51.53, 315.92 32.21, 276.43 -1.16 M358.57 69.68 C326.15 42.38, 291.35 12.46, 277.63 -3.09 M360.18 67.84 C336.43 44.57, 311.74 28, 284 -3.59 M360.11 66.05 C328.09 37.01, 298.95 10.05, 282.46 -1.25 M361.47 59 C329.3 32.12, 304.45 8.84, 285.84 1.35 M358.22 60.07 C339.26 43.12, 322.41 26.39, 289.85 -1.3 M358.54 53.97 C339.21 35.36, 312.62 12.84, 290.96 1.25 M358.5 54.48 C332 29.25, 307.17 10.42, 293.07 -0.63 M358.21 51.04 C341.16 34.37, 327.23 21.17, 300.76 -2.65 M358.08 47.79 C341.47 32.31, 325.41 16.82, 298.46 -0.69 M356.64 41.19 C340.94 27.5, 322.48 12.36, 302.92 -4.05 M356.65 44.96 C345.54 29.87, 329.34 17.45, 306.53 -3.78 M357.29 39.42 C342.22 25.68, 329.26 13.08, 313.99 1.93 M357.58 36.55 C342.4 26.45, 329.68 15.12, 311.73 -1.74 M356.74 29.69 C347.51 25.54, 339.8 9.6, 321.53 -1.15 M358.95 33.47 C350.09 24.76, 341.7 15.5, 319.8 -4.02 M362.59 28.24 C349.12 24.85, 341.9 14.66, 326.25 -2.96 M358.59 26.13 C351.86 18.66, 342.65 14.9, 323.08 -3.81 M355.32 20.48 C348.24 18.62, 347.26 8.05, 332.6 -0.88 M357.19 23.11 C352.38 16.68, 341.88 10.12, 330.28 -0.62 M362.19 16.4 C352.26 12.72, 346.66 2.87, 338.7 -4.59 M359.34 18.39 C351.93 8.32, 343.3 2.81, 337.59 -3.18 M355.06 11.39 C352.39 7.99, 350.07 5.83, 342.89 1.4 M356.59 10.03 C356.77 7.63, 350.07 4.27, 342.49 -0.06 M357.2 8.51 C355.75 2.08, 352 -0.24, 347.01 -4.7 M359.92 7 C355.82 4.25, 351.48 0.01, 347.71 -1.87 M358.89 0.82 C357.2 -0.77, 357.13 -0.38, 355.74 -2.46 M358.29 0.91 C357.8 0.16, 356.67 -0.49, 355.34 -1.63" stroke="#fab005" stroke-width="0.5" fill="none"></path><path d="M2.5 1.16 C129.88 0.48, 261.21 1.75, 355.78 2.11 M0.18 0.83 C137.04 1.63, 272.44 2.61, 357.75 1.2 M357 -3.24 C358.6 96.12, 363.73 195.18, 355.21 252.01 M358.42 -0.98 C356.29 91.06, 354.71 183.07, 357.07 251.22 M360.16 249.81 C245.18 252.16, 133.38 250.33, 0.68 248.72 M359.14 250.08 C220.06 248.77, 82.11 249.09, 0.96 251.09 M-3.23 248.45 C-2.02 173.89, -2.89 95.45, 2.24 -3.04 M0.45 250.31 C-1.53 181.82, -1.43 114.37, 0.64 -0.67" stroke="#495057" stroke-width="1" fill="none"></path></g><g stroke-linecap="round" transform="translate(106.97828984558589 327.53994220107796) rotate(0 49 49)"><path d="M8.58 20.71 C8.58 20.71, 8.58 20.71, 8.58 20.71 M8.58 20.71 C8.58 20.71, 8.58 20.71, 8.58 20.71 M5.12 32.28 C8.89 20.16, 17.53 13.54, 30.99 6.31 M6.26 30.47 C10.31 23.03, 18.2 15.64, 28.96 4.25 M3.03 38.03 C11.48 34.26, 13.02 26.38, 31.35 6.84 M-0.48 41.89 C15.63 27.34, 24.94 15.73, 32.55 4.62 M-1.41 52.13 C10.8 33.16, 25.74 18.14, 37.41 4.37 M0.64 49.97 C15.76 33.65, 25.4 16.6, 38.98 3.58 M1.76 56.34 C12.6 39.29, 23.21 29.59, 48.26 5.27 M3.11 53.31 C13.56 40.25, 24.5 28.01, 46.66 3.3 M5.02 55.3 C23.2 33.21, 37.83 12.23, 49.27 4.92 M3.91 55.96 C20.76 35.93, 37.67 15.84, 51.54 4.24 M6.81 62.94 C14.49 47.65, 24.54 33.52, 53.57 4.34 M4.74 60.97 C22.82 43.89, 37.13 26.58, 56.45 2.95 M4.98 63.05 C21.95 47.51, 39.58 29.16, 61.52 4.56 M5.3 64.27 C22.92 45.42, 39.23 27.13, 60.28 5.63 M4.92 66.94 C27.76 48.78, 50.21 26.42, 62.81 6.47 M9.22 71.4 C29.32 44.95, 51.27 20.17, 64 5.17 M10.38 77.05 C25.49 55.9, 44.98 35.52, 64.6 9.02 M10.66 74.38 C32.27 46.87, 54.3 23.06, 68.56 6.52 M14.24 74.08 C38.28 52.03, 58.21 23.83, 72.96 5.25 M10.99 77.99 C36.58 49.72, 58.59 24.06, 72.15 7.94 M17.98 79.39 C34.42 59.44, 53.14 41.88, 79.04 6.74 M13.96 79.38 C31.87 63.26, 46.13 46.31, 78.15 8.59 M21.12 87.57 C34.55 71.91, 46.17 55.14, 78.5 9.97 M17.03 83.82 C41.65 55.72, 64.87 30.98, 78.47 12.14 M23.36 90.37 C32.9 76.03, 45.34 60.88, 80.28 13.14 M21.27 85.81 C42.32 65.12, 63.1 39.32, 80.01 14.73 M22.7 88.54 C35.8 73.68, 58.01 49.13, 83.41 17.6 M23.34 92.12 C46.95 63.18, 70.97 34.63, 85.36 19.6 M27.52 89.45 C42.07 74.99, 57.08 61.71, 87.81 19.49 M27.36 92.58 C45.85 73.83, 61.75 52.98, 85.41 19.91 M32.19 94.53 C48.45 71.79, 68.56 44.6, 93.75 27.56 M30.32 94.73 C54.7 68.71, 77.66 41.64, 90.56 25.75 M35.66 97.3 C54.13 78.17, 67.09 55.34, 94.63 25.08 M32.5 95.03 C50.12 77.58, 67.83 56.1, 93.42 29.28 M41.73 94.07 C55.42 71.29, 75.84 48.13, 91.13 29.2 M39.55 96.72 C59 73.23, 76.99 47.23, 94.65 33.22 M39.79 96.78 C64.52 71.06, 83.54 46.8, 95.94 40.34 M43.03 95.89 C61.42 77.53, 77.28 56.22, 93.6 35.45 M50.25 97.61 C57.63 81.51, 69.47 71.87, 96.62 41.31 M47.68 97.28 C59.88 84.1, 71.82 68.79, 94.93 41.29 M56.69 98.65 C64.62 85.95, 79.73 71.41, 100.34 42.66 M55.35 97.06 C65.96 84.44, 75.86 70.28, 99.19 48.11 M62.05 98.5 C72.83 86.58, 79.5 77.69, 97.39 49.1 M59.03 96.73 C74.98 78.7, 87.51 65.85, 98.1 48.85 M64.01 94.16 C75.31 78.76, 92.69 65.68, 97.91 56.84 M66.02 94.09 C77.79 80.06, 90 65.77, 101.17 52.62 M69.75 92.1 C76.11 90.59, 84.19 82.84, 95.53 61.02 M70.51 93.61 C82.33 82.93, 89.96 75.26, 99.06 65.29 M21.13 90.01 C21.13 90.01, 21.13 90.01, 21.13 90.01 M21.13 90.01 C21.13 90.01, 21.13 90.01, 21.13 90.01 M26.76 96.09 C24.85 92.07, 19.66 82.4, 13.89 73.76 M30.1 91 C25.85 89.44, 19.79 83.36, 12.75 77.41 M43.69 94.9 C37.38 93.73, 27.89 82.9, 10.95 71.06 M40.17 95.96 C30.32 89.53, 22.93 81.29, 9.81 66.87 M47.77 94.54 C34.42 86.55, 19.42 75.01, 9.05 57.18 M47.35 98.62 C34.92 84.27, 21.65 72.76, 5.12 60.46 M49.02 94.63 C40.76 84.69, 32.63 77.53, 6.27 54.3 M52.83 96.04 C37.8 83.66, 22.18 70.45, 5.54 52.01 M55.01 98.38 C44.32 83.31, 24.43 66.95, -1.38 45.13 M57.62 95.2 C39.03 80.69, 15.26 60.79, 2.43 46.85 M62.47 95.31 C44.68 79.39, 19.04 59.17, 1.7 39.43 M61.96 96.79 C46.14 79.52, 25.39 65.31, 3.11 43.47 M70.95 95.67 C51.13 79.12, 38.1 68.12, 6.49 37.36 M68.79 92.89 C50.12 78.71, 32.27 64.75, 2.5 38.12 M73.91 95.67 C45.77 68.67, 22.13 47.73, 6.28 36.53 M74.71 93.36 C58.01 79.67, 44.33 66.26, 3.85 34.99 M79.35 88.09 C57.82 72.57, 44.97 61.95, 8.04 25.97 M76.33 91.64 C56.8 77.58, 40.78 61.21, 5.91 29.39 M79.47 84.68 C60.72 72.66, 47.71 56.06, 11.79 26.6 M79.83 88.35 C64.49 70.36, 48.68 59.42, 8.16 27.43 M79.02 87.51 C57.35 62.58, 31.81 39.6, 5.98 21.19 M83.03 85.81 C59.73 61.98, 37.47 46.24, 9.9 21.12 M88.16 78.75 C61.64 65.92, 42.51 51.64, 7.37 14.77 M84.17 83.04 C60.83 60.35, 35.37 40.67, 12.06 16.02 M85.62 77.95 C63.37 54.6, 29.24 31.7, 11.89 16.68 M86.79 80.16 C56.4 54.07, 32.12 29.67, 15.78 14.42 M93.52 78.53 C67.37 48.67, 40.28 29.51, 13.99 9 M90.44 76.14 C66.75 55.44, 42.81 32.34, 15.67 11.01 M95.58 75.65 C77.13 56.86, 51.37 40.85, 19.83 13.07 M90.61 71.84 C72.31 55.22, 51.4 38.88, 20.72 8.59 M94.4 65.5 C76.58 56.35, 60.86 43, 23.37 8.15 M95.92 70.44 C74.36 49.23, 52.97 31.58, 24.2 7.83 M95.16 66.4 C75.41 45.08, 50.38 23.3, 29.73 7.81 M93.55 65.8 C77.13 49.09, 62.2 33.41, 26.94 4.97 M100.45 63.37 C83.38 49.24, 71.6 33.44, 27.1 -2.08 M95.97 60.16 C78.88 47.88, 63.58 31.28, 30.94 0.9 M95.93 56.1 C73.33 34.77, 51.23 16.73, 37.59 1.12 M96.3 55.32 C84.28 43.35, 68.5 29.49, 34.08 2.88 M98.42 56 C79.47 34.82, 55.37 15.59, 38.84 -3.21 M100.33 50.88 C82.82 37.25, 68.2 26.13, 41.56 -0.33 M100.04 44.89 C86.71 34.99, 73.48 18.81, 44.18 -1.83 M100.39 50.12 C80.26 30.76, 58.65 11.49, 45.82 -0.18 M97.33 41.47 C86.99 23.6, 64.74 15.25, 50.5 -1.76 M100.31 43.64 C87.7 27.71, 71.7 16.68, 52.27 0.8 M100.39 35.83 C83.83 20.91, 67.21 11.08, 54.85 0.33 M98.38 35.09 C88.79 26.88, 78.02 19.33, 55.68 -3.28 M97 24.08 C84.23 20.55, 75.11 12.46, 62.37 -1.51 M95.27 24.92 C84.45 15.64, 71.07 7.01, 65.92 1.92" stroke="#228be6" stroke-width="0.5" fill="none"></path><path d="M8.37 20.96 C12.29 13.74, 19.5 6.45, 27.05 3.19 C34.6 -0.07, 45.69 0.62, 53.65 1.39 C61.6 2.16, 68.27 3.55, 74.77 7.84 C81.26 12.12, 88.59 19.84, 92.61 27.09 C96.63 34.35, 99.29 43.44, 98.89 51.38 C98.49 59.33, 94.59 67.71, 90.21 74.78 C85.83 81.86, 79.79 89.95, 72.62 93.82 C65.45 97.69, 55.81 98.66, 47.19 97.99 C38.58 97.33, 27.61 94.49, 20.92 89.82 C14.22 85.16, 10.59 77.03, 7.01 69.99 C3.44 62.95, -2.85 57.27, -0.54 47.58 C1.76 37.88, 15.1 19.4, 20.85 11.82 C26.61 4.24, 34.09 1.44, 33.99 2.08 M69.27 1.6 C76.04 4, 81.57 13.26, 86.81 20.02 C92.05 26.79, 99.82 34.24, 100.71 42.21 C101.6 50.18, 96.1 60.2, 92.15 67.86 C88.19 75.52, 83.06 83.33, 76.99 88.18 C70.91 93.03, 63.29 96.29, 55.69 96.96 C48.08 97.64, 39.6 95.03, 31.37 92.26 C23.14 89.48, 11.65 87.09, 6.32 80.29 C1 73.5, -0.68 59.78, -0.58 51.47 C-0.47 43.16, 3.33 37.57, 6.96 30.45 C10.59 23.34, 14.54 13.8, 21.2 8.77 C27.87 3.75, 39.17 1.07, 46.95 0.29 C54.73 -0.49, 64.28 3.5, 67.88 4.1 C71.48 4.69, 69.07 2.99, 68.54 3.85" stroke="#495057" stroke-width="1" fill="none"></path></g><g stroke-linecap="round" transform="translate(361.9782898455859 327.53994220107796) rotate(0 49 49)"><path d="M8.23 21.73 C8.23 21.73, 8.23 21.73, 8.23 21.73 M8.23 21.73 C8.23 21.73, 8.23 21.73, 8.23 21.73 M9.1 32.98 C9.17 23.38, 17.18 17.09, 30.95 2.55 M6.92 31.69 C13.81 20.55, 21.11 14.94, 28.19 3.34 M4.65 36.14 C10.75 28.77, 27.56 14.29, 34 4.92 M5.73 37.61 C9.37 31.18, 16.1 24.74, 34.68 4.55 M6.73 45.15 C14.5 33.94, 33.97 15.11, 38.55 8.12 M2.56 45.22 C12.42 34, 23.77 19.82, 38.6 2.74 M0.69 50.9 C20.57 34.81, 30.07 19.83, 43.35 7.67 M4.65 49.97 C16.31 36.94, 27.36 23.27, 43 4.34 M1.98 55.72 C23.13 42.12, 35.32 25.53, 51 6.34 M3.93 57.64 C18.13 42.36, 28.85 28.56, 51.65 4.68 M0.93 66.15 C12.8 51.57, 29.69 33.15, 54.08 -1.96 M3.56 64.41 C19.87 43.16, 40.08 23.61, 59.04 1.01 M3.53 70.39 C25.8 43.3, 51.97 17.4, 58.08 3.98 M2.62 67.43 C24.78 43.31, 45.81 18.24, 59.07 3.94 M7.53 71.87 C31.94 49.59, 49.19 19.07, 65.28 8.69 M5.94 73.59 C26.69 51.25, 44.52 28.73, 64.75 6.58 M6.71 71.97 C22.41 61.43, 41.65 43.34, 69.73 8.75 M8.2 75.43 C24.13 61.12, 35.17 44.16, 69.03 8.49 M10.82 75.03 C30.2 56.91, 52.89 28.72, 70.68 8.87 M11.72 79.33 C28.42 59.16, 44.67 39.66, 69.97 8.92 M13.82 82.53 C29.45 67.06, 41.32 49.77, 78.63 9.76 M14.46 80.93 C26.45 70.24, 39.83 52.9, 74.71 9.91 M16.61 88.24 C29.54 70.01, 47.42 56.55, 77.57 16.04 M18.61 83.35 C37.76 60.29, 59.88 34.39, 77.39 13.33 M17.9 89.81 C40.39 62.69, 71.68 34.68, 77.66 17.59 M17.22 90.11 C40.41 65.27, 62.42 40.8, 81.79 17.46 M20.86 90.85 C36.96 70.5, 53.73 59.67, 82.08 16.15 M22.71 90.29 C43.11 66.08, 63.81 41.11, 83.83 20.77 M30.75 91.18 C45.38 70.4, 56.46 50.58, 86.48 20.74 M28.31 90.03 C42.56 74.13, 54.17 57.09, 85 24.54 M29.62 96.84 C52.18 63.54, 79.29 42.88, 86.44 25.52 M32.55 93.68 C45.78 74.32, 62.26 52.96, 87.48 27.85 M34.42 96.02 C55.34 66.41, 79.79 43.24, 89.57 31.9 M37.16 92.95 C45.13 78.12, 59.19 64.49, 92.17 28.96 M43.17 91.42 C52.39 78.64, 71.03 61.48, 91.7 34.7 M39.11 94.46 C60.65 73.36, 79.18 47.96, 94.63 32.59 M47.72 97.12 C56.33 80.36, 67.99 65.68, 93.6 38.97 M43.16 97.77 C59.06 73.62, 79.35 56.48, 95.61 37.97 M45.91 96.73 C66.88 83.39, 83.23 61.04, 97.11 41.67 M47.82 100.74 C64.35 79.15, 82.08 57.37, 97.05 41.68 M50.93 98.95 C71.02 75.73, 84.67 59.85, 97.32 42.26 M54.51 96.28 C68.28 82.84, 82.52 65.74, 100 47.44 M58.95 94.06 C66.34 83.54, 82.81 77.66, 97.99 52.59 M57.08 95.99 C72.66 82.79, 88.22 66.38, 99.88 49.19 M64.46 94.67 C75.15 89.26, 86.42 76.54, 98.34 56.52 M64.82 96.18 C70.6 85.95, 80.01 78.29, 99.12 57.9 M68.4 98.44 C77.34 89.09, 82.7 76.71, 93.25 68.09 M68.55 95.67 C74.95 89.68, 83.03 80.84, 95.12 68.89 M18.39 88.59 C18.39 88.59, 18.39 88.59, 18.39 88.59 M18.39 88.59 C18.39 88.59, 18.39 88.59, 18.39 88.59 M28.02 94.79 C17.61 83.24, 13.5 78.16, 5.74 70.7 M27.87 93.29 C18.79 82.95, 12.89 78.65, 3.97 71.68 M41.94 91.55 C25.96 89.94, 23.21 78.24, 4.71 68.39 M36.82 94.23 C30.28 86.95, 21.33 80.54, 6.23 66.41 M47.62 96.94 C34.35 84.68, 27.7 79.79, 9.11 59.14 M46.98 97.55 C36.14 87.3, 24.13 75.91, 5.75 61.84 M52.79 94.88 C34.58 80.46, 13.39 62.57, 9 59.16 M52.21 93.73 C39.2 86.34, 27.57 76.2, 6.96 54.28 M54.28 91.98 C39.43 76.16, 16.24 59.58, 1.38 49.64 M55.37 94.58 C46.93 87.53, 33.62 75.55, 5.41 52.4 M63.04 93.57 C47.66 84.63, 27.16 65.86, 4.3 44.64 M61.15 94.45 C46.5 78.26, 27.55 65.82, 3.74 44.19 M67.58 96.13 C56.47 78.82, 40.04 67.05, 7.49 38.87 M69.32 93.88 C44.08 73.64, 20.49 52.33, 6.1 38.04 M73.07 92.57 C57.26 77.35, 37.51 65.72, 9.46 35.72 M69.64 90 C54.31 73.43, 33.6 60.54, 5.04 33.88 M74.29 89.99 C46.79 68.39, 27.42 46.89, 11.17 29.67 M72.58 89.55 C57.43 76.16, 39.04 59.84, 7.04 30.84 M74.88 87.67 C55.16 67.11, 33.8 52.54, 11.85 24.24 M76.51 88.01 C50.41 64.58, 20.31 39.24, 10.1 28.3 M79.83 82.88 C60.41 62.07, 31.46 42.24, 11.19 23.81 M81.83 86.63 C61.96 69.84, 45.57 53.55, 9.78 23 M81.52 78.81 C59.22 60.09, 26.77 37.03, 7.41 21.53 M84.98 81.51 C58.87 62.75, 34.45 40.48, 11.04 20.08 M89.9 80.37 C71.09 58.91, 47.53 48.22, 17.67 17.16 M86.31 78.63 C59.63 55.31, 29.71 28.94, 12.5 16.09 M94.58 78.15 C78.26 64.37, 54.37 46.21, 13.42 15.04 M92.08 78.94 C65.2 55.81, 40.33 30.58, 15.58 12.19 M92.73 74.25 C62.4 50.7, 37.67 23.82, 16.53 13.18 M92.09 75.47 C67.15 49.18, 37.92 25.7, 20.45 12.43 M90.71 72.76 C74.97 52.64, 62.83 43.77, 26.18 7.85 M93.17 68.91 C67.45 43.23, 40.78 20.68, 22.75 7.48 M93.17 67.77 C72.09 49.96, 57.69 33.82, 23.73 4.82 M98.09 66.8 C71.04 41.88, 43.63 17.72, 26.22 7.1 M100.92 62.47 C67.2 34.83, 45.92 15.62, 32.83 4.51 M99.24 59.94 C71.77 40.36, 49.1 22, 28.7 4.46 M95.34 59.06 C71.98 39.4, 46.63 17.85, 36.31 -2.76 M100.84 59.34 C79.85 40.46, 59.58 27.12, 34.75 0.57 M99.23 54 C87.07 43.03, 72.4 30.47, 35.57 3.72 M99.61 52.73 C76.83 33.06, 51.62 12.92, 36.92 -0.01 M97.18 43.83 C82.6 34.15, 57.37 10.31, 45.16 -3.64 M98.94 45.59 C80.01 29.82, 56.49 12.25, 42.1 1.31 M100.48 39 C77.46 22.15, 59.7 12.74, 49.67 -2.93 M97.65 40.11 C86.23 29.22, 72.49 17.1, 50.26 -1.9 M93.95 33.88 C86.98 23.12, 69.42 16.03, 52.4 -4.23 M94.59 32.4 C84.44 26.89, 76.71 16.85, 54.87 -1.33 M95.1 30.5 C83.59 15.93, 74.45 12, 70.74 6.91 M95.65 29.46 C90.97 21.85, 83.91 18.24, 68.17 5.75" stroke="#228be6" stroke-width="0.5" fill="none"></path><path d="M55.34 0.75 C63.14 1.14, 70.78 6.32, 76.99 11.19 C83.19 16.06, 88.91 22.6, 92.56 29.96 C96.22 37.32, 99.4 47.03, 98.89 55.35 C98.38 63.66, 94.8 73.27, 89.5 79.86 C84.2 86.44, 74.49 91.99, 67.09 94.86 C59.68 97.73, 53.2 98.13, 45.08 97.08 C36.95 96.03, 25.26 93.12, 18.36 88.57 C11.47 84.02, 6.4 76.92, 3.72 69.78 C1.04 62.63, 1.47 53.78, 2.27 45.72 C3.07 37.65, 3.86 28.54, 8.54 21.38 C13.23 14.21, 21.87 6.22, 30.37 2.71 C38.87 -0.8, 54.26 0.51, 59.54 0.32 C64.81 0.12, 62.42 0.43, 62.03 1.55 M38.99 -0.68 C46.36 -4.12, 54.93 -3.3, 62.48 -0.41 C70.03 2.47, 78.35 10.74, 84.27 16.63 C90.2 22.52, 96.26 27.44, 98.05 34.92 C99.83 42.4, 97.84 53.52, 94.99 61.51 C92.13 69.51, 86.84 76.97, 80.92 82.92 C75 88.86, 67.06 95.21, 59.47 97.19 C51.88 99.17, 42.94 97.03, 35.38 94.78 C27.81 92.54, 19.28 89.05, 14.07 83.73 C8.86 78.41, 5.66 71.28, 4.12 62.85 C2.58 54.42, 2.92 41.71, 4.85 33.13 C6.78 24.55, 10.26 17.12, 15.7 11.39 C21.14 5.67, 34.37 0.52, 37.49 -1.23 C40.61 -2.98, 33.9 0.01, 34.41 0.89" stroke="#495057" stroke-width="1" fill="none"></path></g></svg>